Coordinates
version=1
nRows=29
nColumns=22
inDegrees=yes

Units are S.I. units (second, meters, Newtons, ...)
If the header above contains a line with 'inDegrees', this indicates whether rotational values are in degrees (yes) or radians (no).

endheader
time	pelvis_tilt	pelvis_list	pelvis_rotation	pelvis_tx	pelvis_ty	pelvis_tz	hip_flexion_r	hip_adduction_r	hip_rotation_r	knee_angle_r	ankle_angle_r	subtalar_angle_r	hip_flexion_l	hip_adduction_l	hip_rotation_l	knee_angle_l	ankle_angle_l	subtalar_angle_l	lumbar_extension	lumbar_bending	lumbar_rotation
      3.16000000	     14.51141894	      0.98419213	   -151.90600783	      0.42478112	      0.89341473	     -0.40970738	      8.23950568	      5.81246158	     13.19879229	    -20.02175157	      1.12328939	    -11.10103032	     30.44321585	    -12.19962383	      0.12184752	    -81.36346273	     15.99674966	      0.33722713	     -0.21442749	     -4.23337763	     18.42509196
      3.17000000	     14.10215867	      0.97020187	   -154.13006903	      0.42575114	      0.89330297	     -0.41227869	      8.05027938	      6.20297212	     15.02936795	    -20.12055796	      1.14310586	    -10.92242891	     30.97533688	    -12.11788104	      0.49405128	    -80.60860516	     16.04706859	      0.09388782	     -0.43500535	     -3.93370628	     18.81392536
      3.18000000	     13.67994324	      0.93536697	   -156.18712439	      0.42676791	      0.89342312	     -0.41473709	      7.83358663	      6.55119124	     16.72338958	    -20.24049616	      1.14070113	    -10.69025980	     31.53317919	    -11.99562540	      0.91889790	    -79.75849822	     16.10615527	     -0.22644547	     -0.71869762	     -3.69326143	     19.07808089
      3.19000000	     13.26075402	      0.87421728	   -158.05438930	      0.42782374	      0.89374452	     -0.41703375	      7.60330162	      6.84472426	     18.22728606	    -20.38187172	      1.13701293	    -10.40552942	     32.13215406	    -11.80354870	      1.40842340	    -78.81269796	     16.16663955	     -0.65495879	     -1.04476621	     -3.52880919	     19.20503793
      3.20000000	     12.90003346	      0.82925109	   -159.75533900	      0.42895022	      0.89411622	     -0.41924107	      7.47085727	      7.12849581	     19.52856506	    -20.60712906	      1.08988998	    -10.34894110	     32.85569706	    -11.58747622	      1.94305245	    -77.79435048	     16.19083545	     -0.83753053	     -1.32890657	     -3.41796495	     19.21701091
      3.21000000	     12.54297149	      0.73283280	   -161.30515779	      0.43003758	      0.89466391	     -0.42134111	      7.34819240	      7.35756757	     20.62923719	    -20.90866328	      0.98886806	    -10.27875408	     33.57610930	    -11.31714921	      2.45817288	    -76.66136232	     16.22932594	     -1.08147900	     -1.64649371	     -3.40638362	     19.11987437
      3.22000000	     12.20873424	      0.59322990	   -162.70159005	      0.43109298	      0.89533711	     -0.42331166	      7.25539036	      7.53071983	     21.54024352	    -21.27170709	      0.85988543	    -10.22396284	     34.31996160	    -10.98387777	      2.95516781	    -75.42380452	     16.24257614	     -1.34166840	     -1.96364750	     -3.48752061	     18.91513045
      3.23000000	     11.89362103	      0.41412737	   -163.96198295	      0.43208594	      0.89611900	     -0.42516602	      7.19136089	      7.65550070	     22.29176591	    -21.69390243	      0.69640121	    -10.18154991	     35.07438519	    -10.60079717	      3.41204505	    -74.08193693	     16.22511870	     -1.60469899	     -2.27335488	     -3.65182057	     18.63778991
      3.24000000	     11.57410255	      0.19332477	   -165.11495805	      0.43298509	      0.89701819	     -0.42692666	      7.13431772	      7.73746090	     22.91903400	    -22.17851709	      0.54329026	    -10.11832823	     35.80048119	    -10.19047705	      3.78863309	    -72.63670105	     16.18050498	     -1.92970624	     -2.59633227	     -3.88630501	     18.29305669
      3.25000000	     11.27771122	     -0.03197572	   -166.15875470	      0.43378727	      0.89799799	     -0.42856342	      7.07798473	      7.78939120	     23.48553592	    -22.62228956	      0.30040987	    -10.05676324	     36.53941850	     -9.76104242	      4.11932000	    -71.09347651	     16.07630241	     -2.12581167	     -2.88407963	     -4.15257869	     17.91115200
      3.26000000	     10.98104074	     -0.26739091	   -167.12853619	      0.43447428	      0.89906887	     -0.43010970	      7.00264006	      7.81275225	     24.02570294	    -23.03783513	      0.01945933	     -9.96489771	     37.25023412	     -9.33549211	      4.35806724	    -69.45213306	     15.91822836	     -2.24465428	     -3.16361548	     -4.44435829	     17.52379958
      3.27000000	     10.68490265	     -0.50498378	   -168.03973408	      0.43503964	      0.90022209	     -0.43156967	      6.89810432	      7.80769620	     24.56829857	    -23.39545890	     -0.29506963	     -9.82825638	     37.92662061	     -8.92314880	      4.49530431	    -67.70914159	     15.69863939	     -2.27376700	     -3.43300774	     -4.74850840	     17.15037434
      3.28000000	     10.38462433	     -0.73579891	   -168.89870535	      0.43547388	      0.90144323	     -0.43292328	      6.74918280	      7.77447884	     25.12464738	    -23.67087763	     -0.62988107	     -9.62212287	     38.56271605	     -8.52664871	      4.53721724	    -65.86907311	     15.42541983	     -2.18071995	     -3.69382039	     -5.04837508	     16.80192864
      3.29000000	     10.07711811	     -0.94733062	   -169.69620939	      0.43576987	      0.90272261	     -0.43412998	      6.53596109	      7.71167673	     25.69356667	    -23.82649976	     -0.97376869	     -9.27205644	     39.15525244	     -8.13934343	      4.51886523	    -63.92959406	     15.11236228	     -1.86632822	     -3.94927278	     -5.32373833	     16.47394406
      3.30000000	      9.79130362	     -1.14056279	   -170.47117111	      0.43595486	      0.90397383	     -0.43526335	      6.32832044	      7.63043654	     26.25613640	    -23.94036030	     -1.30456902	     -8.96050657	     39.73555474	     -7.79178523	      4.38334521	    -61.90353441	     14.71600654	     -1.43206857	     -4.16987414	     -5.58213813	     16.20864332
      3.31000000	      9.50046633	     -1.27996617	   -171.15156634	      0.43598608	      0.90524543	     -0.43614920	      6.03332422	      7.52985531	     26.78049438	    -23.87045660	     -1.62724477	     -8.42888708	     40.28392822	     -7.44039961	      4.27708215	    -59.78392090	     14.30963431	     -0.60383291	     -4.38139077	     -5.76579904	     15.93954509
      3.32000000	      9.22523882	     -1.39600656	   -171.79569638	      0.43588488	      0.90647990	     -0.43690156	      5.72198968	      7.40346701	     27.25456114	    -23.72905202	     -1.92287127	     -7.89982897	     40.80650633	     -7.11152090	      4.10389696	    -57.57689492	     13.86306825	      0.35245920	     -4.56897261	     -5.91632991	     15.71732003
      3.33000000	      8.96328332	     -1.47374519	   -172.38318220	      0.43564376	      0.90767367	     -0.43746540	      5.37831534	      7.25810214	     27.66013599	    -23.48451538	     -2.19622375	     -7.31117345	     41.30600771	     -6.79591423	      3.91725885	    -55.28989562	     13.41527938	      1.47827063	     -4.73548780	     -6.00930193	     15.51021601
      3.34000000	      8.70958699	     -1.53264635	   -172.92370915	      0.43524016	      0.90884575	     -0.43784588	      4.99042528	      7.07745916	     28.00199423	    -23.13612473	     -2.43367469	     -6.67937920	     41.75860459	     -6.47539401	      3.72838792	    -52.91594140	     12.98899335	      2.71351950	     -4.88946479	     -6.06492040	     15.33910797
      3.35000000	      8.47025671	     -1.56609060	   -173.42117870	      0.43468351	      0.90996913	     -0.43806422	      4.57671413	      6.87877402	     28.27713163	    -22.70838841	     -2.64454303	     -6.01428540	     42.17861001	     -6.16172967	      3.55084395	    -50.47446253	     12.59007373	      3.98638661	     -5.02569024	     -6.07690298	     15.19349914
      3.36000000	      8.22110058	     -1.60383312	   -173.88842968	      0.43394282	      0.91109047	     -0.43813927	      4.10302147	      6.63988270	     28.50087908	    -22.20408477	     -2.80760940	     -5.38743608	     42.52222192	     -5.83983306	      3.37560311	    -47.96451461	     12.23400751	      5.15314994	     -5.17494799	     -6.07658658	     15.08036357
      3.37000000	      8.03071095	     -1.55300187	   -174.32496227	      0.43311000	      0.91203002	     -0.43814577	      3.68689335	      6.47925575	     28.67604442	    -21.67945876	     -3.01791011	     -4.64273925	     42.92900691	     -5.59629619	      3.26331928	    -45.46359956	     11.84630538	      6.36835037	     -5.25588486	     -5.97050292	     14.99449239
      3.38000000	      7.81401504	     -1.52245773	   -174.75807283	      0.43208144	      0.91297626	     -0.43808868	      3.19140145	      6.28254914	     28.84586968	    -21.09650485	     -3.16646774	     -4.00766107	     43.24047951	     -5.36078438	      3.13461095	    -42.93125560	     11.48461883	      7.32344277	     -5.37171102	     -5.87418503	     14.94836265
      3.39000000	      7.63271954	     -1.43993789	   -175.19506961	      0.43095037	      0.91377125	     -0.43806231	      2.72461640	      6.14504758	     29.01160136	    -20.51264287	     -3.33109209	     -3.34515509	     43.58134889	     -5.21113157	      3.00823405	    -40.44155230	     11.05422166	      8.17121821	     -5.45144053	     -5.72207718	     14.94911118
      3.40000000	      7.43684270	     -1.34712696	   -175.66775636	      0.42968477	      0.91451517	     -0.43809105	      2.22860201	      6.02476803	     29.17779445	    -19.93181125	     -3.50359358	     -2.74290888	     43.87526942	     -5.13648887	      2.82721337	    -37.99867857	     10.56288877	      8.83235615	     -5.55591315	     -5.55415835	     15.02570410
      3.41000000	      7.28002186	     -1.21613527	   -176.15291293	      0.42832310	      0.91507893	     -0.43816084	      1.75478175	      5.94692329	     29.37646910	    -19.34344720	     -3.61203864	     -2.10279733	     44.21306690	     -5.13766989	      2.62414501	    -35.65703329	     10.02203395	      9.41053347	     -5.62413919	     -5.34449763	     15.11047816
      3.42000000	      7.11820105	     -1.08293672	   -176.68415187	      0.42682591	      0.91556028	     -0.43830997	      1.26297941	      5.87348081	     29.56198321	    -18.75930276	     -3.72187146	     -1.56539168	     44.53315933	     -5.21010097	      2.32145599	    -33.43198840	      9.43207808	      9.81679016	     -5.70567835	     -5.13565539	     15.27919364
      3.43000000	      6.96326119	     -0.93518544	   -177.23669106	      0.42522116	      0.91591816	     -0.43848180	      0.76611958	      5.81126538	     29.72878574	    -18.18048912	     -3.75715044	     -1.00054318	     44.86988625	     -5.33445549	      1.95156321	    -31.36375394	      8.77910133	     10.17265039	     -5.79147112	     -4.90749558	     15.46835023
      3.44000000	      6.80643562	     -0.79814286	   -177.83869199	      0.42348474	      0.91618728	     -0.43871715	      0.25779932	      5.73564120	     29.90169693	    -17.61439889	     -3.76604104	     -0.52096638	     45.19588640	     -5.50297650	      1.48096967	    -29.45600970	      8.14754232	     10.42894536	     -5.88933293	     -4.69165053	     15.69905714
